<?xml version="1.0" standalone="no"?>
<!DOCTYPE svg PUBLIC "-//W3C//DTD SVG 20010904//EN"
 "http://www.w3.org/TR/2001/REC-SVG-20010904/DTD/svg10.dtd">
<svg version="1.0" xmlns="http://www.w3.org/2000/svg"
 width="188.000000pt" height="49.000000pt" viewBox="0 0 188.000000 49.000000"
 preserveAspectRatio="xMidYMid meet">
<metadata>
Created by potrace 1.16, written by Peter Selinger 2001-2019
</metadata>
<g transform="translate(0.000000,49.000000) scale(0.100000,-0.100000)"
fill="#000000" stroke="none">
<path d="M0 330 l0 -160 116 0 c114 0 116 0 145 29 33 34 39 83 14 131 -15 30
-61 60 -90 60 -9 0 -15 9 -15 23 -1 48 -45 77 -119 77 l-51 0 0 -160z m231 1
c36 -36 37 -73 4 -106 -22 -23 -32 -25 -115 -25 l-90 0 0 55 0 55 39 0 c28 0
48 7 68 25 37 32 58 31 94 -4z"/>
<path d="M310 369 l0 -121 39 -39 c35 -36 43 -39 93 -39 105 0 138 51 138 215
l0 105 -135 0 -135 0 0 -121z m238 -10 c-4 -99 -4 -102 -36 -130 -46 -42 -93
-40 -138 5 -34 34 -34 34 -34 130 l0 96 106 0 106 0 -4 -101z"/>
<path d="M702 474 c-50 -35 -14 -114 54 -114 26 0 43 -8 65 -29 37 -37 37 -65
0 -102 -39 -39 -100 -41 -136 -4 -14 13 -25 31 -25 40 0 8 -7 15 -15 15 -8 0
-15 -9 -15 -21 0 -54 51 -89 129 -89 42 0 56 5 83 29 29 26 33 35 33 80 0 65
-29 97 -98 110 -59 11 -76 24 -61 49 16 25 51 27 66 3 16 -26 38 -27 38 -2 0
25 -36 51 -70 51 -14 0 -36 -7 -48 -16z"/>
<path d="M1005 476 c-16 -8 -43 -28 -59 -45 -24 -25 -31 -42 -34 -89 -3 -42 1
-68 12 -90 9 -18 19 -32 21 -32 5 0 135 255 135 265 0 10 -45 4 -75 -9z"/>
<path d="M1335 470 c-22 -11 -49 -33 -60 -47 -26 -37 -32 -130 -11 -171 9 -18
19 -32 21 -32 5 0 135 255 135 265 0 12 -48 3 -85 -15z"/>
<path d="M1679 426 l-30 -64 48 -96 48 -96 67 0 67 0 -77 160 c-42 88 -81 160
-85 160 -4 0 -22 -29 -38 -64z"/>
<path d="M1037 345 c-37 -74 -67 -139 -67 -143 0 -16 50 -32 98 -32 119 0 194
113 148 224 -14 35 -72 86 -97 86 -8 0 -42 -56 -82 -135z m120 73 c46 -51 53
-89 26 -145 -20 -43 -66 -73 -113 -73 -66 0 -67 7 -6 129 31 61 60 111 64 111
5 0 18 -10 29 -22z"/>
<path d="M1377 345 c-37 -74 -67 -139 -67 -144 0 -18 61 -33 113 -29 63 5 107
32 130 80 l16 33 -89 3 c-50 1 -90 5 -90 8 0 13 72 144 79 144 5 0 23 -16 40
-35 33 -38 51 -44 51 -19 0 23 -73 94 -96 94 -15 0 -36 -33 -87 -135z"/>
</g>
</svg>
